# xmcd CD database file
#
# Track frame offsets:
#	150
#	27537
#	82987
#	95910
#	136147
#	184162
#	212860
#	242475
#
# Disc length: 3611 seconds
#
# Revision: 0
# Processed by: cddbd v1.5.2PL0 Copyright (c) Steve Scherf et al.
# Submitted via: CDex 1.51
#
DISCID=6b0e1908
DTITLE=Art Blakey and the Jazz Messengers - the birthday concert (2)
DYEAR=1980
DGENRE=Jazz
TTITLE0=E.T.A.
TTITLE1=time will tell
TTITLE2=Jody
TTITLE3=angel eyes
TTITLE4=bit a bittadose
TTITLE5=improved theme
TTITLE6=a wheel within a wheel
TTITLE7=gypsy folk tales
EXTD=YEAR: 1980
EXTT0=
EXTT1=
EXTT2=
EXTT3=
EXTT4=
EXTT5=
EXTT6=
EXTT7=
PLAYORDER=
